<?xml version="1.0" encoding="UTF-8"?>
<svg width="24px" height="24px" viewBox="0 0 24 24" version="1.1" xmlns="http://www.w3.org/2000/svg" xmlns:xlink="http://www.w3.org/1999/xlink">
    <title>file_copy_black_24dp-2</title>
    <g id="页面-2" stroke="none" stroke-width="1" fill="none" fill-rule="evenodd">
        <g id="链接钱包及登陆-已登陆" transform="translate(-1291.000000, -521.000000)">
            <g id="编组-8" transform="translate(885.000000, 96.000000)">
                <g id="编组-5" transform="translate(0.000000, 64.000000)">
                    <g id="编组-2" transform="translate(0.000000, 248.000000)">
                        <g id="编组-10" transform="translate(0.000000, 44.000000)">
                            <g id="编组-9" transform="translate(0.000000, 31.000000)">
                                <g id="file_copy_black_24dp-2" transform="translate(406.000000, 38.000000)">
                                    <polygon id="路径" points="0 0 24 0 24 24 0 24"></polygon>
                                    <path d="M16,1 L4,1 C2.9,1 2,1.9 2,3 L2,17 L4,17 L4,3 L16,3 L16,1 Z M15,5 L21,11 L21,21 C21,22.1 20.1,23 19,23 L7.99,23 C6.89,23 6,22.1 6,21 L6.01,7 C6.01,5.9 6.9,5 8,5 L15,5 Z M14,12 L19.5,12 L14,6.5 L14,12 Z" id="形状" fill="#958EFC" fill-rule="nonzero"></path>
                                </g>
                            </g>
                        </g>
                    </g>
                </g>
            </g>
        </g>
    </g>
</svg>