<?xml version="1.0" encoding="UTF-8"?>
<svg xmlns="http://www.w3.org/2000/svg" xmlns:xlink="http://www.w3.org/1999/xlink" width="133.35pt" height="19.12pt" viewBox="0 0 133.35 19.12" version="1.1">
<defs>
<clipPath id="clip1">
  <path d="M 0 0 L 25 0 L 25 19.121094 L 0 19.121094 Z M 0 0 "/>
</clipPath>
<clipPath id="clip2">
  <path d="M 25 0 L 50 0 L 50 19.121094 L 25 19.121094 Z M 25 0 "/>
</clipPath>
<clipPath id="clip3">
  <path d="M 61 0 L 85 0 L 85 19.121094 L 61 19.121094 Z M 61 0 "/>
</clipPath>
<clipPath id="clip4">
  <path d="M 87 0 L 109 0 L 109 19.121094 L 87 19.121094 Z M 87 0 "/>
</clipPath>
<clipPath id="clip5">
  <path d="M 109 0 L 133.351563 0 L 133.351563 19.121094 L 109 19.121094 Z M 109 0 "/>
</clipPath>
</defs>
<g id="surface1">
<g clip-path="url(#clip1)" clip-rule="nonzero">
<path style=" stroke:none;fill-rule:nonzero;fill:rgb(17.298889%,16.099548%,16.499329%);fill-opacity:1;" d="M 10.902344 5.796875 L 22.675781 10.367188 C 23.871094 10.816406 24.644531 11.859375 24.644531 13.144531 L 24.675781 16.191406 C 24.675781 17.804688 23.359375 19.121094 21.75 19.121094 L 0 19.121094 L 1.195313 17.027344 C 1.375 16.699219 1.824219 16.460938 2.183594 16.460938 L 15.148438 16.460938 C 15.5625 16.460938 15.890625 16.132813 15.890625 15.714844 C 15.863281 13.386719 15.890625 13.386719 15.890625 13.386719 L 15.890625 13.351563 C 15.890625 13.027344 15.652344 12.726563 15.328125 12.605469 L 3.554688 8.035156 C 2.359375 7.558594 1.554688 6.546875 1.554688 5.257813 L 1.554688 2.929688 C 1.554688 1.3125 2.867188 0 4.480469 0 L 24.613281 0 L 23.421875 2.089844 C 23.242188 2.421875 22.789063 2.660156 22.433594 2.660156 L 11.140625 2.660156 C 10.695313 2.660156 10.339844 3.050781 10.339844 3.496094 L 10.339844 5.019531 C 10.339844 5.378906 10.578125 5.675781 10.902344 5.796875 "/>
</g>
<g clip-path="url(#clip2)" clip-rule="nonzero">
<path style=" stroke:none;fill-rule:nonzero;fill:rgb(17.298889%,16.099548%,16.499329%);fill-opacity:1;" d="M 46.484375 10.726563 L 36.355469 10.726563 L 37.492188 8.78125 C 37.667969 8.453125 38.117188 8.21875 38.476563 8.21875 L 40.300781 8.21875 C 40.75 8.21875 41.105469 7.859375 41.105469 7.410156 L 41.105469 3.464844 C 41.105469 3.015625 40.75 2.660156 40.300781 2.660156 L 35.101563 2.660156 L 35.101563 19.121094 L 26.316406 19.121094 L 26.316406 3.4375 C 26.316406 2.273438 25.960938 0.71875 25.359375 0 L 46.484375 0 C 48.097656 0 49.410156 1.3125 49.410156 2.929688 L 49.410156 7.796875 C 49.410156 9.414063 48.097656 10.726563 46.484375 10.726563 "/>
</g>
<path style=" stroke:none;fill-rule:nonzero;fill:rgb(17.298889%,16.099548%,16.499329%);fill-opacity:1;" d="M 50.605469 13.980469 L 58.550781 13.980469 L 58.550781 10.21875 L 50.605469 10.21875 Z M 50.605469 13.980469 "/>
<g clip-path="url(#clip3)" clip-rule="nonzero">
<path style=" stroke:none;fill-rule:nonzero;fill:rgb(17.298889%,16.099548%,16.499329%);fill-opacity:1;" d="M 67.804688 12.128906 L 74.078125 12.128906 L 74.078125 5.496094 L 67.804688 12.128906 M 81.339844 12.128906 L 84.984375 12.128906 L 83.875 14.070313 C 83.695313 14.398438 83.25 14.671875 82.859375 14.671875 L 81.339844 14.671875 L 81.339844 19.121094 L 74.078125 19.121094 L 74.078125 14.671875 L 61.441406 14.671875 L 61.441406 12.128906 L 61.472656 12.128906 L 73.152344 0.03125 L 81.339844 0.03125 "/>
</g>
<g clip-path="url(#clip4)" clip-rule="nonzero">
<path style=" stroke:none;fill-rule:nonzero;fill:rgb(17.298889%,16.099548%,16.499329%);fill-opacity:1;" d="M 99.722656 2.660156 L 95.746094 2.660156 C 95.390625 2.660156 95.089844 2.957031 95.089844 3.316406 L 95.089844 15.804688 C 95.089844 16.164063 95.390625 16.460938 95.746094 16.460938 L 99.722656 16.460938 C 100.078125 16.460938 100.378906 16.164063 100.378906 15.804688 L 100.378906 3.316406 C 100.378906 2.957031 100.078125 2.660156 99.722656 2.660156 M 89.953125 0 L 105.515625 0 C 106.980469 0 108.175781 1.199219 108.175781 2.660156 L 108.175781 16.460938 C 108.175781 17.925781 106.980469 19.121094 105.515625 19.121094 L 89.953125 19.121094 C 88.488281 19.121094 87.292969 17.925781 87.292969 16.460938 L 87.292969 2.660156 C 87.292969 1.199219 88.488281 0 89.953125 0 "/>
</g>
<g clip-path="url(#clip5)" clip-rule="nonzero">
<path style=" stroke:none;fill-rule:nonzero;fill:rgb(17.298889%,16.099548%,16.499329%);fill-opacity:1;" d="M 116.175781 12.128906 L 122.449219 12.128906 L 122.449219 5.496094 L 116.175781 12.128906 M 129.710938 12.128906 L 133.351563 12.128906 L 132.25 14.070313 C 132.066406 14.398438 131.621094 14.671875 131.234375 14.671875 L 129.710938 14.671875 L 129.710938 19.121094 L 122.449219 19.121094 L 122.449219 14.671875 L 109.8125 14.671875 L 109.8125 12.128906 L 109.839844 12.128906 L 121.523438 0.03125 L 129.710938 0.03125 "/>
</g>
</g>
</svg>
