<?xml version="1.0" encoding="UTF-8"?>
<svg width="150px" height="38px" viewBox="0 0 150 38" version="1.1" xmlns="http://www.w3.org/2000/svg" xmlns:xlink="http://www.w3.org/1999/xlink">
    <title>suterusu-logo-white</title>
    <defs>
        <linearGradient x1="41.9118991%" y1="42.8071234%" x2="57.9418753%" y2="57.0896106%" id="linearGradient-1">
            <stop stop-color="#907FDE" offset="0%"></stop>
            <stop stop-color="#40349D" offset="100%"></stop>
        </linearGradient>
        <linearGradient x1="0%" y1="49.9895024%" x2="100%" y2="49.9895024%" id="linearGradient-2">
            <stop stop-color="#EDDEFF" offset="0%"></stop>
            <stop stop-color="#A8A5FF" offset="100%"></stop>
        </linearGradient>
    </defs>
    <g id="页面-2" stroke="none" stroke-width="1" fill="none" fill-rule="evenodd">
        <g id="deposit-未选择币对" transform="translate(-88.000000, -29.000000)" fill-rule="nonzero">
            <g id="suterusu-logo-white" transform="translate(88.000000, 29.000000)">
                <polygon id="路径" fill="url(#linearGradient-1)" points="10.9223688 23.7534908 21.8327658 19.0019948 10.9064063 14.2624672 0 19.0179528"></polygon>
                <polygon id="路径" fill="#FFFFFF" points="21.8327658 19.0019948 10.9223688 23.7534908 10.9183782 23.7574803 10.9143876 23.7534908 0.00399063531 28.5089764 0.0159625412 38 0.0199531765 38 10.9303501 33.2445144 10.9303501 33.2445144 10.9343407 33.2445144 21.8447377 28.4930184 21.8327658 19.0019948"></polygon>
                <polygon id="路径" fill="url(#linearGradient-2)" points="21.8327658 0 10.9223688 4.75548556 10.9183782 4.75548556 10.9143876 4.75548556 0.00399063531 9.51097113 0.0159625412 19.0019948 0.0199531765 19.0019948 10.9303501 14.2465092 10.9303501 14.2425197 10.9343407 14.2465092 21.8447377 9.49102362 21.8327658 0"></polygon>
                <path d="M37.7913164,28.4730709 C36.9027165,28.0890486 36.1267122,27.4848984 35.5366074,26.7176903 C34.9932417,26.01002 34.6761309,25.1548983 34.6267426,24.264147 L38.3460147,24.264147 C38.4166809,24.8257288 38.7172653,25.3328209 39.1760668,25.6644619 C39.7005787,26.0439797 40.3367448,26.2377236 40.9838246,26.2150131 C41.5611256,26.2541325 42.1364984,26.1148566 42.631957,25.816063 C43.0016291,25.5806438 43.2257735,25.1730878 43.2265617,24.7349081 C43.2291678,24.2625786 42.9403949,23.8374734 42.500266,23.6657218 C41.7575071,23.3296009 40.9853907,23.0625086 40.1936788,22.8678215 C39.2829595,22.6670212 38.3880327,22.4003528 37.5159625,22.0699213 C36.8222296,21.7915157 36.2071051,21.3477658 35.7241673,20.7773228 C35.1929036,20.1146307 34.9244036,19.2795346 34.9699372,18.4314961 C34.963955,17.6383735 35.2083329,16.8635666 35.6682984,16.2173228 C36.1731106,15.5112709 36.8637766,14.958895 37.663616,14.6215223 C38.6358369,14.2149711 39.6828604,14.0178604 40.7364052,14.0430446 C42.4763222,14.0430446 43.8650633,14.4779003 44.9026285,15.3476115 C45.9444089,16.2268813 46.5673644,17.5043013 46.6186017,18.8663517 L43.0828988,18.8663517 C43.0487991,18.3226238 42.7846565,17.8191543 42.3566032,17.4819948 C41.3720214,16.8507954 40.1244561,16.7959729 39.0882729,17.3383727 C38.7414905,17.5645571 38.5362364,17.9538254 38.5455465,18.367664 C38.5391708,18.857115 38.8315681,19.3011166 39.283814,19.4887139 C40.0190058,19.8333464 40.7879993,20.1007464 41.5784293,20.2866142 C42.4671158,20.4918718 43.3404985,20.7584777 44.1922954,21.0845144 C44.8864154,21.3661644 45.5024053,21.8109196 45.9880813,22.3811024 C46.5214407,23.0404319 46.8041757,23.8671968 46.7862084,24.7149606 C46.7952633,25.5245971 46.5511054,26.3168385 46.0878472,26.9809974 C45.5837034,27.6810423 44.8920551,28.2245235 44.0925295,28.5488714 C43.127378,28.9451356 42.0908049,29.1379948 41.0476748,29.1153806 C39.9286259,29.1381357 38.817858,28.9190391 37.7913164,28.4730709 Z" id="路径" fill="#FFFFFF"></path>
                <path d="M63.5907737,14.2704462 L63.5907737,28.88 L59.8715015,28.88 L59.8715015,27.0328609 C59.3856485,27.6773395 58.746408,28.1902322 58.0118655,28.5249344 C57.2308003,28.8873825 56.3787902,29.0713644 55.5177184,29.0635171 C54.4611636,29.085857 53.4166589,28.8357967 52.4848356,28.3374278 C51.5983876,27.8465472 50.877583,27.1037323 50.4136959,26.2030446 C49.8904421,25.1608491 49.6327331,24.0055996 49.6634564,22.839895 L49.6634564,14.2704462 L53.3547941,14.2704462 L53.3547941,22.3132808 C53.3547941,23.4728959 53.6447802,24.3652143 54.2247526,24.9902362 C54.8480249,25.6367257 55.7224641,25.9791171 56.6191338,25.927769 C57.5151182,25.9748505 58.3878472,25.6331288 59.013515,24.9902362 C59.5908269,24.367874 59.880813,23.4755556 59.8834734,22.3132808 L59.8834734,14.2704462 L63.5907737,14.2704462 Z" id="路径" fill="#FFFFFF"></path>
                <path d="M71.5281473,17.3024672 L71.5281473,24.3718635 C71.4927277,24.7609126 71.6214824,25.1470668 71.8833138,25.4370604 C72.2278633,25.6912813 72.654247,25.8092139 73.0805044,25.768189 L74.7964776,25.768189 L74.7964776,28.88 L72.4739278,28.88 C69.3612323,28.88 67.8048845,27.367979 67.8048845,24.343937 L67.8048845,17.3024672 L66.0649675,17.3024672 L66.0649675,14.2704462 L67.8048845,14.2704462 L67.8048845,10.6599475 L71.5281473,10.6599475 L71.5281473,14.2704462 L74.8004682,14.2704462 L74.8004682,17.3024672 L71.5281473,17.3024672 Z" id="路径" fill="#FFFFFF"></path>
                <path d="M90.9425881,22.6843045 L80.2596573,22.6843045 C80.2955275,23.6223747 80.6930819,24.5101844 81.369054,25.1617848 C82.02038,25.7603556 82.8790174,26.0822531 83.7634351,26.0594226 C85.011574,26.1330604 86.1761102,25.4304133 86.6925615,24.2920735 L90.6831968,24.2920735 C90.2714022,25.6799259 89.4199341,26.8965633 88.2568905,27.7589501 C86.9849212,28.6858627 85.4404949,29.1630951 83.8671917,29.1153806 C82.5452986,29.1369282 81.240424,28.8152697 80.0800787,28.1818373 C78.9747963,27.5662798 78.0690936,26.6469898 77.4702033,25.5328084 C76.8281041,24.3140324 76.5054595,22.9524473 76.532404,21.5752231 C76.5003554,20.1886983 76.8187944,18.8165062 77.4582314,17.5857218 C78.0403232,16.4800805 78.9319691,15.5678934 80.0242099,14.9606299 C82.392397,13.7419107 85.2013444,13.7315266 87.5784825,14.9327034 C88.6608734,15.5140265 89.5499201,16.3986609 90.1364797,17.4780052 C90.7585502,18.6414989 91.0718137,19.9450192 91.0463446,21.264042 C91.0511788,21.739519 91.0164738,22.2145751 90.9425881,22.6843045 L90.9425881,22.6843045 Z M87.223316,20.2028346 C87.2406935,19.3272596 86.8624916,18.4904692 86.193732,17.9248294 C85.5099531,17.3452506 84.6355399,17.0396482 83.7394913,17.0670866 C82.8932162,17.0414414 82.0687777,17.3380408 81.4329041,17.8969029 C80.7916292,18.5045252 80.3919083,19.3235784 80.307545,20.2028346 L87.223316,20.2028346 Z" id="形状" fill="#FFFFFF"></path>
                <path d="M99.2909971,14.7212598 C100.09015,14.2705075 100.995433,14.0418406 101.912845,14.0590026 L101.912845,17.9367979 L100.93913,17.9367979 C99.7791848,17.9367979 98.9039055,18.2027647 98.3132915,18.7346982 C97.7226775,19.2666317 97.4287006,20.216133 97.4313611,21.5832021 L97.4313611,28.88 L93.7360328,28.88 L93.7360328,14.2704462 L97.4313611,14.2704462 L97.4313611,16.5564304 C97.8844591,15.7961022 98.5246451,15.1643385 99.2909971,14.7212598 Z" id="路径" fill="#FFFFFF"></path>
                <path d="M118.190646,14.2704462 L118.190646,28.88 L114.471374,28.88 L114.471374,27.0328609 C113.990144,27.6738282 113.358273,28.1863068 112.631691,28.5249344 C111.850626,28.8873825 110.998616,29.0713644 110.137544,29.0635171 C109.080989,29.085857 108.036484,28.8357967 107.104661,28.3374278 C106.218213,27.8465472 105.497408,27.1037323 105.033521,26.2030446 C104.499218,25.1636861 104.230509,24.0082913 104.251357,22.839895 L104.251357,14.2704462 L107.942694,14.2704462 L107.942694,22.3132808 C107.942694,23.4728959 108.232681,24.3652143 108.812653,24.9902362 C109.435925,25.6367257 110.310364,25.9791171 111.207034,25.927769 C112.103019,25.9748505 112.975748,25.6331288 113.601415,24.9902362 C114.181388,24.367874 114.471374,23.4755556 114.471374,22.3132808 L114.471374,14.2704462 L118.190646,14.2704462 Z" id="路径" fill="#FFFFFF"></path>
                <path d="M124.204533,28.4730709 C123.315298,28.0901217 122.539044,27.4857772 121.949824,26.7176903 C121.406459,26.01002 121.089348,25.1548983 121.03996,24.264147 L124.755241,24.264147 C124.827346,24.8262241 125.129339,25.3332547 125.589284,25.6644619 C126.11352,26.044535 126.749881,26.2383385 127.397042,26.2150131 C127.974298,26.2536143 128.549518,26.1143756 129.045174,25.816063 C129.413885,25.580226 129.636616,25.1725023 129.635788,24.7349081 C129.640172,24.2632309 129.352786,23.8378297 128.913483,23.6657218 C128.169298,23.3297265 127.395869,23.0626421 126.602905,22.8678215 C125.692186,22.6670212 124.797259,22.4003528 123.925189,22.0699213 C123.231456,21.7915157 122.616331,21.3477658 122.133394,20.7773228 C121.603223,20.1142433 121.336119,19.2790719 121.383154,18.4314961 C121.377172,17.6383735 121.62155,16.8635666 122.081515,16.2173228 C122.58494,15.5099585 123.276017,14.9572539 124.076833,14.6215223 C125.049192,14.2154307 126.096116,14.0183385 127.149622,14.0430446 C128.889539,14.0430446 130.27828,14.4779003 131.315845,15.3476115 C132.359232,16.2256299 132.982557,17.5038071 133.031819,18.8663517 L129.496116,18.8663517 C129.46201,18.323546 129.199573,17.8205651 128.773811,17.4819948 C127.787734,16.850904 126.539095,16.7961013 125.50149,17.3383727 C125.154707,17.5645571 124.949453,17.9538254 124.958763,18.367664 C124.952388,18.857115 125.244785,19.3011166 125.697031,19.4887139 C126.432223,19.8333464 127.201216,20.1007464 127.991646,20.2866142 C128.880333,20.4918718 129.753715,20.7584777 130.605512,21.0845144 C131.295656,21.3708377 131.906291,21.8197864 132.385336,22.3930709 C132.92117,23.0510311 133.204225,23.8787336 133.183463,24.7269291 C133.194401,25.5368372 132.950069,26.329642 132.485102,26.9929659 C131.981433,27.6934662 131.28964,28.2370612 130.489784,28.5608399 C129.523395,28.9576448 128.485407,29.1505144 127.440939,29.1273491 C126.32766,29.1440849 125.223834,28.9209331 124.204533,28.4730709 L124.204533,28.4730709 Z" id="路径" fill="#FFFFFF"></path>
                <path d="M150,14.2704462 L150,28.88 L146.280728,28.88 L146.280728,27.0328609 C145.794875,27.6773395 145.155634,28.1902322 144.421092,28.5249344 C143.641288,28.8869307 142.790677,29.070905 141.930935,29.0635171 C140.873113,29.0858257 139.827327,28.8357877 138.894062,28.3374278 C138.007757,27.8476632 137.287951,27.1044455 136.826913,26.2030446 C136.300547,25.1618228 136.041364,24.0061139 136.072683,22.839895 L136.072683,14.2704462 L139.768011,14.2704462 L139.768011,22.3132808 C139.768011,23.4742257 140.055337,24.367874 140.63797,24.9902362 C141.25569,25.6326538 142.122286,25.9748255 143.012398,25.927769 C143.908553,25.9759073 144.781704,25.6340204 145.406779,24.9902362 C145.984091,24.367874 146.274077,23.4755556 146.276737,22.3132808 L146.276737,14.2704462 L150,14.2704462 Z" id="路径" fill="#FFFFFF"></path>
            </g>
        </g>
    </g>
</svg>