<?xml version="1.0" encoding="UTF-8"?>
<svg width="8px" height="6px" viewBox="0 0 8 6" version="1.1" xmlns="http://www.w3.org/2000/svg" xmlns:xlink="http://www.w3.org/1999/xlink">
    <title>三角形</title>
    <g id="页面-2" stroke="none" stroke-width="1" fill="none" fill-rule="evenodd">
        <g id="deposit-未选择币对" transform="translate(-1041.000000, -262.000000)" fill="#FFFFFF">
            <g id="编组-10" transform="translate(885.000000, 160.000000)">
                <g id="pay" transform="translate(0.000000, 72.000000)">
                    <g id="编组" transform="translate(20.000000, 20.000000)">
                        <path d="M140.416025,10.6240377 L143.481767,15.2226499 C143.634943,15.4524142 143.572856,15.7628489 143.343092,15.9160251 C143.260958,15.970781 143.164454,16 143.065741,16 L136.934259,16 C136.658116,16 136.434259,15.7761424 136.434259,15.5 C136.434259,15.4012875 136.463478,15.3047837 136.518233,15.2226499 L139.583975,10.6240377 C139.737151,10.3942734 140.047586,10.3321864 140.27735,10.4853627 C140.332276,10.5219801 140.379408,10.5691116 140.416025,10.6240377 Z" id="三角形" transform="translate(140.000000, 13.000000) scale(1, -1) translate(-140.000000, -13.000000) "></path>
                    </g>
                </g>
            </g>
        </g>
    </g>
</svg>